<svg version="1.1" id="Layer_1" xmlns="http://www.w3.org/2000/svg" xmlns:xlink="http://www.w3.org/1999/xlink" x="0px" y="0px" viewBox="0 0 494.7 105.5" style="enable-background:new 0 0 494.7 105.5;" xml:space="preserve">
 <style type="text/css">
  .st0{fill:#00A1E4;}
	.st1{fill:#797D82;}
 </style>
 <g>
  <g>
   <path class="st0" d="M52.7,40.8c-2.8,0-5-2.3-5-5c0-2.8,2.3-5,5-5c2.8,0,5,2.2,5,5C57.7,38.6,55.5,40.8,52.7,40.8 M56.3,22.3
			c0-2-1.6-3.5-3.6-3.5c-2,0-3.6,1.6-3.6,3.5c0,2,1.6,3.6,3.6,3.6C54.7,25.8,56.3,24.2,56.3,22.3 M55.2,11.3c0-1.4-1.1-2.5-2.5-2.5
			c-1.4,0-2.5,1.1-2.5,2.5c0,1.4,1.1,2.5,2.5,2.5C54.1,13.7,55.2,12.6,55.2,11.3 M54.3,1.6c0-0.9-0.7-1.6-1.6-1.6
			c-0.9,0-1.6,0.7-1.6,1.6c0,0.9,0.7,1.6,1.6,1.6C53.6,3.3,54.3,2.5,54.3,1.6 M74.7,52.7c0-2.8-2.2-5-5-5c-2.8,0-5,2.2-5,5
			c0,2.8,2.3,5,5,5C72.4,57.7,74.7,55.5,74.7,52.7 M86.7,52.7c0-2-1.6-3.6-3.6-3.6c-2,0-3.6,1.6-3.6,3.6c0,2,1.6,3.5,3.6,3.5
			C85.2,56.3,86.7,54.7,86.7,52.7 M96.6,52.7c0-1.4-1.1-2.5-2.5-2.5c-1.4,0-2.5,1.1-2.5,2.5c0,1.4,1.1,2.5,2.5,2.5
			C95.5,55.2,96.6,54.1,96.6,52.7 M105.5,52.7c0-0.9-0.7-1.6-1.6-1.6c-0.9,0-1.6,0.7-1.6,1.6c0,0.9,0.7,1.6,1.6,1.6
			C104.7,54.4,105.5,53.6,105.5,52.7 M57.7,69.7c0-2.8-2.3-5-5-5c-2.8,0-5,2.2-5,5c0,2.8,2.3,5,5,5C55.5,74.7,57.7,72.4,57.7,69.7
			 M56.3,83.2c0-2-1.6-3.6-3.6-3.6c-2,0-3.6,1.6-3.6,3.6c0,2,1.6,3.6,3.6,3.6C54.7,86.7,56.3,85.2,56.3,83.2 M55.2,94.2
			c0-1.4-1.1-2.5-2.5-2.5c-1.4,0-2.5,1.1-2.5,2.5c0,1.4,1.1,2.5,2.5,2.5C54.1,96.6,55.2,95.5,55.2,94.2 M54.3,103.8
			c0-0.9-0.7-1.6-1.6-1.6c-0.9,0-1.6,0.7-1.6,1.6c0,0.9,0.7,1.6,1.6,1.6C53.6,105.5,54.3,104.7,54.3,103.8 M40.8,52.7
			c0-2.8-2.3-5-5-5c-2.8,0-5,2.2-5,5c0,2.8,2.3,5,5,5C38.6,57.7,40.8,55.5,40.8,52.7 M25.8,52.7c0-2-1.6-3.6-3.6-3.6
			s-3.6,1.6-3.6,3.6c0,2,1.6,3.5,3.6,3.5S25.8,54.7,25.8,52.7 M13.8,52.7c0-1.4-1.1-2.5-2.5-2.5s-2.5,1.1-2.5,2.5
			c0,1.4,1.1,2.5,2.5,2.5S13.8,54.1,13.8,52.7 M3.3,52.7c0-0.9-0.7-1.6-1.6-1.6c-0.9,0-1.6,0.7-1.6,1.6c0,0.9,0.7,1.6,1.6,1.6
			C2.5,54.4,3.3,53.6,3.3,52.7 M68.2,44.3c1-0.9,1.5-2.2,1.5-3.5c0-1.3-0.5-2.6-1.5-3.6c-0.9-0.9-2.2-1.5-3.5-1.5
			c-1.3,0-2.6,0.5-3.5,1.5c-1,1-1.5,2.2-1.5,3.6c0,1.3,0.5,2.6,1.5,3.5c0.9,1,2.2,1.5,3.5,1.5C66,45.8,67.3,45.2,68.2,44.3
			 M76.8,33.7c1.4-1.4,1.4-3.6,0-5c-0.7-0.7-1.6-1-2.5-1c-0.9,0-1.8,0.4-2.5,1c-0.7,0.7-1.1,1.6-1.1,2.5c0,1,0.4,1.8,1.1,2.5
			c0.7,0.7,1.6,1,2.5,1C75.2,34.7,76.1,34.4,76.8,33.7 M83.7,25.2c0.5-0.5,0.7-1.1,0.7-1.7s-0.3-1.3-0.7-1.7
			C83.3,21.2,82.7,21,82,21s-1.3,0.3-1.7,0.7c-0.5,0.5-0.7,1.1-0.7,1.7s0.3,1.3,0.7,1.7c0.5,0.5,1.1,0.7,1.7,0.7
			S83.3,25.6,83.7,25.2 M90,17.8c0.6-0.6,0.6-1.7,0-2.3c-0.6-0.6-1.7-0.6-2.3,0c-0.6,0.6-0.6,1.7,0,2.3c0.3,0.3,0.7,0.5,1.2,0.5
			C89.3,18.2,89.7,18.1,90,17.8 M68.3,68.3c1.9-2,1.9-5.1,0-7.1c-1-1-2.2-1.5-3.6-1.5c-1.3,0-2.6,0.5-3.5,1.5c-2,1.9-2,5.1,0,7.1
			c0.9,0.9,2.2,1.5,3.5,1.5C66,69.7,67.3,69.2,68.3,68.3 M76.8,76.8c1.4-1.4,1.4-3.6,0-5c-0.7-0.7-1.6-1-2.5-1c-1,0-1.8,0.4-2.5,1
			c-0.7,0.7-1.1,1.6-1.1,2.5c0,0.9,0.4,1.8,1.1,2.5c0.7,0.7,1.6,1,2.5,1C75.2,77.8,76.1,77.5,76.8,76.8 M83.8,83.8
			c0.5-0.5,0.7-1.1,0.7-1.7c0-0.7-0.3-1.3-0.7-1.7c-0.5-0.5-1.1-0.7-1.7-0.7c-0.7,0-1.3,0.3-1.7,0.7c-0.5,0.5-0.7,1.1-0.7,1.7
			c0,0.7,0.3,1.3,0.7,1.7c0.5,0.5,1.1,0.7,1.7,0.7C82.7,84.5,83.3,84.3,83.8,83.8 M90,90c0.3-0.3,0.5-0.7,0.5-1.2
			c0-0.4-0.2-0.8-0.5-1.1c-0.6-0.6-1.7-0.6-2.3,0c-0.3,0.3-0.5,0.7-0.5,1.1c0,0.4,0.2,0.9,0.5,1.2c0.3,0.3,0.7,0.5,1.2,0.5
			C89.3,90.5,89.7,90.4,90,90 M44.3,68.3c2-2,2-5.2,0-7.1c-0.9-1-2.2-1.5-3.5-1.5c-1.3,0-2.6,0.5-3.5,1.5c-1,0.9-1.5,2.2-1.5,3.5
			c0,1.3,0.5,2.6,1.5,3.6c0.9,0.9,2.2,1.5,3.5,1.5C42.1,69.7,43.3,69.2,44.3,68.3 M33.7,76.8c0.7-0.7,1-1.6,1-2.5c0-1-0.4-1.8-1-2.5
			c-0.7-0.7-1.6-1-2.5-1c-1,0-1.8,0.4-2.5,1c-1.4,1.4-1.4,3.6,0,5c0.7,0.7,1.6,1,2.5,1C32.1,77.8,33,77.5,33.7,76.8 M25.1,83.8
			c0.5-0.5,0.7-1.1,0.7-1.7c0-0.7-0.3-1.3-0.7-1.8c-0.5-0.5-1.1-0.7-1.7-0.7c-0.7,0-1.3,0.3-1.7,0.7c-0.5,0.5-0.7,1.1-0.7,1.8
			c0,0.7,0.3,1.3,0.7,1.7c0.5,0.5,1.1,0.7,1.7,0.7C24,84.5,24.7,84.2,25.1,83.8 M17.7,90c0.3-0.3,0.5-0.7,0.5-1.2
			c0-0.4-0.2-0.9-0.5-1.1c-0.6-0.6-1.7-0.6-2.3,0c-0.6,0.6-0.6,1.7,0,2.3c0.3,0.3,0.7,0.5,1.2,0.5C17,90.5,17.4,90.3,17.7,90
			 M44.3,44.3c2-1.9,2-5.1,0-7.1c-0.9-0.9-2.2-1.5-3.5-1.5c-1.3,0-2.6,0.5-3.5,1.5c-1,1-1.5,2.2-1.5,3.6c0,1.3,0.5,2.6,1.5,3.5
			c0.9,0.9,2.2,1.5,3.5,1.5C42.1,45.8,43.3,45.3,44.3,44.3 M33.7,33.7c0.7-0.7,1-1.6,1-2.5c0-0.9-0.4-1.8-1-2.5
			c-0.7-0.7-1.6-1-2.5-1c-0.9,0-1.8,0.4-2.5,1c-0.7,0.7-1,1.6-1,2.5c0,1,0.4,1.8,1,2.5c0.7,0.7,1.6,1,2.5,1
			C32.1,34.8,33,34.4,33.7,33.7 M25.2,25.2c0.5-0.5,0.7-1.1,0.7-1.8c0-0.7-0.3-1.3-0.7-1.7c-0.5-0.5-1.1-0.7-1.7-0.7
			c-0.7,0-1.3,0.3-1.7,0.7c-1,1-1,2.5,0,3.5c0.5,0.5,1.1,0.7,1.7,0.7S24.7,25.7,25.2,25.2 M17.7,17.8c0.3-0.3,0.5-0.7,0.5-1.2
			c0-0.4-0.2-0.9-0.5-1.2c-0.6-0.6-1.7-0.6-2.3,0c-0.6,0.6-0.6,1.7,0,2.3c0.3,0.3,0.7,0.5,1.2,0.5S17.4,18.1,17.7,17.8">
   </path>
  </g>
  <g>
   <path d="M136.8,55.1h-7l3.4-15.2h0.1L136.8,55.1z M126.3,68.3l2-7.8h10.1l2,7.8h7.8l-9.6-35.2h-9.7l-9.8,35.2H126.3z">
   </path>
   <g>
    <path d="M157.4,56.7c0-7.5,0.4-9.3,3-9.3c2.5,0,2.8,3.1,2.8,8.5c0,5.2-0.3,7.8-2.8,7.8C157,63.7,157.4,59,157.4,56.7 M163.5,43.7
				v2.9h-0.1c-1-2.3-3.1-3.4-5.5-3.4c-7.2,0-7.3,6.9-7.3,12.3c0,5.6-0.3,12.5,7.2,12.5c2.2,0,4.2-1,5.2-2.9h0.1v4.7
				c0,2.5-0.8,4.1-2.5,4.1c-1.1,0-1.9-0.3-2.3-1c-0.4-0.6-0.6-1.5-0.6-2.5H151c0.1,6,4.5,7.3,9.7,7.3c9.5,0,9.4-6.7,9.4-8.4V43.7
				H163.5z">
    </path>
    <path d="M183.1,68.3h-6.9V56V43.7h6.9V56V68.3z M183.1,33.1v2.7v2.7h-6.9v-2.7v-2.7H183.1z">
    </path>
    <polygon points="196.7,33.1 196.7,50.7 196.7,68.3 189.8,68.3 189.8,50.7 189.8,33.1 			">
    </polygon>
    <path d="M208.9,53.2c0-2.1-0.1-5.8,3.1-5.8c3.3,0,3.2,3.4,3.2,5.8H208.9z M222,57.1c0.2-7.9-0.8-13.9-10.1-13.9
				c-9.1,0-10.1,5.8-10.1,12.5c0,7.7,1.2,13.1,10.1,13.1c3.2,0,5.7-0.9,7.3-2.4c1.7-1.5,2.5-3.7,2.6-6.4h-7c0,2-0.5,4.4-2.9,4.4
				c-3,0-3.1-4.4-3.1-7.3H222z">
    </path>
    <path d="M233.8,46.2L233.8,46.2c0.8-1.1,1.6-1.9,2.5-2.3c1-0.5,2.1-0.7,3.4-0.7c3.3,0,6.1,2,6.1,5.4v19.8H239v-17
				c0-2.2-0.4-3.9-2.6-3.9c-2.2,0-2.6,1.7-2.6,3.9v17h-6.9V43.7h6.9V46.2z">
    </path>
   </g>
   <path d="M249.5,43.7h2.8v-3.9l6.9-3.1v7h3.6v4.3h-3.6v13.2c0,1.9,0,3.1,2.2,3.1c0.4,0,0.9,0,1.2-0.1v4.2c-0.9,0.1-1.9,0.2-3.6,0.2
			c-6,0-6.7-4-6.7-5.5V47.9h-2.8V43.7z">
   </path>
  </g>
  <g>
   <g>
    <path class="st1" d="M334.2,48.8h-5.1v19.8h-2V48.8H322v-1.6h12.2V48.8z M339.8,55.5l-0.6,0c-1,0-1.7,0.2-2.2,0.5
				c-0.9,0.6-1.3,1.8-1.3,3.1v9.5h-1.9V55.8c0-0.3,0-1-0.1-2.1h1.6c0.2,0.8,0.2,1.5,0.2,2.2c0.8-1.6,2.2-2.4,4.2-2.4V55.5z
				 M351.9,68.6H350v-1.8c-0.9,1.3-2.1,2-3.6,2c-2.7,0-4.1-1.6-4.1-4.4V53.8h1.9v10.5c0,2.1,0.9,3.1,2.8,3.1c0.9,0,1.6-0.3,2.2-1
				c0.6-0.6,0.9-1.5,0.9-2.5V53.8h1.9V68.6z M361.4,57.8c-0.1-1.9-0.9-2.8-2.4-2.8c-1.4,0-2.4,0.9-2.4,2.1c0,0.6,0.2,1,0.5,1.4
				c0.3,0.4,1.1,0.9,2.3,1.5c1.7,0.9,2.8,1.7,3.4,2.4c0.5,0.7,0.8,1.5,0.8,2.5c0,1.2-0.4,2.1-1.2,2.8c-0.8,0.7-1.9,1-3.2,1
				c-3.1,0-4.5-1.4-4.5-4.4v-0.2h1.8c0,2.4,0.9,3.3,2.6,3.3c1.5,0,2.6-0.9,2.6-2.4c0-0.6-0.2-1.2-0.5-1.6c-0.3-0.5-1.1-1-2.4-1.6
				c-1.5-0.8-2.6-1.5-3.1-2.1c-0.5-0.6-0.8-1.4-0.8-2.3c0-1.1,0.4-2,1.2-2.7c0.8-0.7,1.9-1,3.1-1c0.9,0,1.6,0.1,2.2,0.3
				c1.2,0.4,2,1.5,2,3.9H361.4z M371.6,68.7c-0.8,0-1.3,0.1-1.7,0.1c-2,0-3-0.7-3-2.2V55.2h-2.2v-1.4h2.2v-2.6l1.9-0.4v3h2.5v1.4
				h-2.5v10.7c0,1,0.5,1.5,1.7,1.5c0.5,0,0.9,0,1.2,0V68.7z M383.6,61.8h-8.5c0,3.7,1.2,5.6,3.5,5.6c1.9,0,3.1-1.3,3.2-3.4h1.7
				c0,1.5-0.5,2.6-1.3,3.5c-0.9,0.9-2,1.3-3.5,1.3c-1.9,0-3.3-0.6-4.1-1.8c-0.9-1.2-1.2-3.2-1.2-6.1c0-4.8,1.5-7.3,5.2-7.3
				c3.4,0,5.1,2.2,5.1,6.5V61.8z M381.7,60.4c0-3.8-1-5.4-3.3-5.4c-1.2,0-2.1,0.5-2.6,1.4c-0.5,0.9-0.8,2.3-0.8,4H381.7z
				 M394.6,68.6c-0.1-0.5-0.2-1.1-0.2-1.9c-0.9,1.4-2.1,2.1-3.7,2.1c-3.1,0-4.6-2.4-4.6-7.3c0-5.4,1.5-7.9,4.8-7.9
				c1.6,0,2.7,0.6,3.5,1.9v-8.2h1.9v18.9c0,0.9,0.1,1.7,0.2,2.5H394.6z M394.4,61.1c0-1.9-0.2-3.3-0.6-4.4c-0.4-1.1-1.3-1.6-2.6-1.6
				c-1.1,0-1.9,0.5-2.4,1.4c-0.5,0.9-0.8,2.6-0.8,5.1c0,3.9,0.8,5.9,3.2,5.9C393.5,67.4,394.4,65.2,394.4,61.1 M421.1,68.6h-2.1
				l-1.7-5.7h-8.5l-1.7,5.7h-1.9l6.6-21.4h2.6L421.1,68.6z M416.9,61.3l-3.7-12.7l-3.8,12.7H416.9z M432.5,68.6h-1.9V58
				c0-2-0.9-3.1-2.8-3.1c-0.9,0-1.6,0.3-2.2,1c-0.6,0.6-0.9,1.5-0.9,2.5v10.1h-1.9V53.8h1.9v1.8c0.9-1.3,2-2,3.6-2
				c2.7,0,4.1,1.6,4.1,4.4V68.6z M442,57.8c-0.1-1.9-0.9-2.8-2.4-2.8c-1.4,0-2.4,0.9-2.4,2.1c0,0.6,0.2,1,0.5,1.4
				c0.3,0.4,1.1,0.9,2.3,1.5c1.7,0.9,2.8,1.7,3.4,2.4c0.5,0.7,0.8,1.5,0.8,2.5c0,1.2-0.4,2.1-1.2,2.8c-0.8,0.7-1.9,1-3.2,1
				c-3.1,0-4.5-1.4-4.5-4.4v-0.2h1.8c0,2.4,0.9,3.3,2.7,3.3c1.5,0,2.6-0.9,2.6-2.4c0-0.6-0.2-1.2-0.5-1.6c-0.3-0.5-1.1-1-2.4-1.6
				c-1.6-0.8-2.6-1.5-3.1-2.1c-0.5-0.6-0.8-1.4-0.8-2.3c0-1.1,0.4-2,1.2-2.7c0.8-0.7,1.9-1,3.1-1c0.9,0,1.6,0.1,2.2,0.3
				c1.2,0.4,2,1.5,2,3.9H442z M464.5,53.8l-4.1,14.8H458c-1.9-7.4-3-11.8-3.2-13.1c-0.4,1.7-1.5,6.1-3.3,13.1h-2.4l-3.8-14.8h1.8
				l3.3,12.9l3.3-12.9h2.4l3.3,13l3.4-13H464.5z M475.8,61.8h-8.5c0,3.7,1.2,5.6,3.5,5.6c1.9,0,3.1-1.3,3.2-3.4h1.7
				c0,1.5-0.5,2.6-1.3,3.5c-0.9,0.9-2,1.3-3.5,1.3c-1.9,0-3.3-0.6-4.1-1.8c-0.9-1.2-1.2-3.2-1.2-6.1c0-4.8,1.6-7.3,5.2-7.3
				c3.4,0,5.1,2.2,5.1,6.5V61.8z M474,60.4c0-3.8-1-5.4-3.3-5.4c-1.2,0-2.1,0.5-2.6,1.4c-0.5,0.9-0.8,2.3-0.8,4H474z M484.8,55.5
				l-0.6,0c-1,0-1.7,0.2-2.2,0.5c-0.9,0.6-1.3,1.8-1.3,3.1v9.5h-1.9V55.8c0-0.3,0-1-0.1-2.1h1.6c0.2,0.8,0.2,1.5,0.2,2.2
				c0.8-1.6,2.2-2.4,4.2-2.4V55.5z M492.7,57.8c-0.1-1.9-0.9-2.8-2.4-2.8c-1.4,0-2.4,0.9-2.4,2.1c0,0.6,0.2,1,0.5,1.4
				c0.3,0.4,1.1,0.9,2.3,1.5c1.7,0.9,2.8,1.7,3.4,2.4c0.5,0.7,0.8,1.5,0.8,2.5c0,1.2-0.4,2.1-1.2,2.8c-0.8,0.7-1.9,1-3.2,1
				c-3.1,0-4.5-1.4-4.5-4.4v-0.2h1.8c0,2.4,0.9,3.3,2.7,3.3c1.5,0,2.6-0.9,2.6-2.4c0-0.6-0.2-1.2-0.5-1.6c-0.3-0.5-1.1-1-2.4-1.6
				c-1.6-0.8-2.6-1.5-3.1-2.1c-0.5-0.6-0.8-1.4-0.8-2.3c0-1.1,0.4-2,1.2-2.7c0.8-0.7,1.9-1,3.1-1c0.9,0,1.6,0.1,2.2,0.3
				c1.2,0.4,2,1.5,2,3.9H492.7z">
    </path>
   </g>
  </g>
  <g>
   <rect x="291.7" y="25.7" class="st1" width="1.5" height="55.3">
   </rect>
  </g>
 </g>
</svg>