<svg version="1.1" id="Layer_1" xmlns="http://www.w3.org/2000/svg" xmlns:xlink="http://www.w3.org/1999/xlink" x="0px" y="0px" viewBox="0 0 261.9 84.9" style="enable-background:new 0 0 261.9 84.9;" xml:space="preserve">
 <style type="text/css">
  .st0{fill:#165788;}
 </style>
 <g>
  <g>
   <path class="st0" d="M117.4,21.3h12.3l13.5,41.6h-9.8l-2.8-9.2h-15.1l-2.8,9.2h-8.8L117.4,21.3z M117.4,47h11L123,29L117.4,47z">
   </path>
   <rect x="148.5" y="18.7" class="st0" width="8.4" height="44.2">
   </rect>
   <path class="st0" d="M163.4,48.1v-0.5c0-9.8,7-15.8,15.7-15.8c7,0,13.5,3.1,14.3,11.8h-8c-0.6-3.5-2.7-5.2-6.2-5.2
			c-4.4,0-7.3,3.3-7.3,9.1V48c0,6.1,2.7,9.2,7.4,9.2c3.4,0,6.1-2,6.5-5.9h7.6c-0.5,7.2-5.7,12.2-14.5,12.2
			C170.1,63.5,163.4,58,163.4,48.1">
   </path>
   <path class="st0" d="M198,48v-0.5c0-9.5,6.9-15.7,16-15.7c9.1,0,16,6.1,16,15.6v0.5c0,9.6-6.9,15.7-16,15.7
			C204.9,63.5,198,57.5,198,48 M221.4,47.9v-0.4c0-5.8-2.7-9.3-7.4-9.3c-4.6,0-7.4,3.4-7.4,9.2v0.5c0,5.8,2.7,9.3,7.4,9.3
			C218.7,57.1,221.4,53.7,221.4,47.9">
   </path>
   <path class="st0" d="M234.4,54.5c0-7.1,6.5-9.8,15.8-9.8h3.4v-1.2c0-3.6-1.1-5.6-4.9-5.6c-3.3,0-4.8,1.7-5.2,4.3h-8
			c0.5-7.2,6.2-10.4,13.7-10.4c7.4,0,12.7,3,12.7,11.3v19.8h-8.2v-3.7c-1.7,2.4-4.4,4.3-9.2,4.3C239,63.5,234.4,60.9,234.4,54.5
			 M253.6,52.3v-2.6h-3.3c-4.9,0-7.7,1-7.7,4.3c0,2.2,1.3,3.7,4.4,3.7C250.8,57.7,253.6,55.6,253.6,52.3">
   </path>
  </g>
  <g>
   <path class="st0" d="M70.8,28.3L47.2,0L23.6,28.3L0,56.6l23.6,28.3l23.6-28.3l23.6,28.3l23.6-28.3L70.8,28.3z M47.2,56.6
			L25.9,31.1h42.5L47.2,56.6z">
   </path>
  </g>
 </g>
</svg>