<svg version="1.0" xmlns="http://www.w3.org/2000/svg" width="2360" height="2360" viewBox="0 0 1770 1770"><path d="M843.5 1.1c-161.3 7.6-315.6 58.3-450.3 148-86.3 57.5-165.6 134-225.9 217.9C96.4 465.7 47.6 574.2 21.5 691.5c-28.3 127-28.3 260 0 387 15.8 70.9 39.3 137.2 71.7 201.8 74.9 149.7 188.7 273.4 332.3 361.2C538 1710.3 671.2 1754.2 803 1766c58.2 5.2 105.3 5.1 164-.1 160.4-14.2 318.4-74.8 447.4-171.6 103.6-77.8 187.2-174.4 248.7-287.4 122.2-224.6 140.3-496.2 49.2-736.4-31.1-82.1-74.8-159.6-129.9-230.5-37.2-47.9-85.9-98-133.6-137.2-107.9-88.9-233.1-150.4-368-180.7C1002 4.4 923-2.6 843.5 1.1zM457.4 627.5c7.7 2 13.6 5.6 19 11.6s7.6 11.9 8.3 22.4c.9 13.8-4.4 29.3-15.3 45-5.9 8.3-11.7 12.9-19 15.1-4.7 1.3-6.1 1.4-9.6.2-6.5-2.1-8.3-5.4-8.3-15.1.1-9.2 2-14.1 9.2-23.3 5.7-7 10.8-10.2 18.9-11.7 6.7-1.3 6.9-1.4 7.8-4.9 2.2-8.8-3.1-17-11.9-18.3-13.3-2-38.2 8.3-63.2 26.2-17 12.1-45.2 39.5-67.3 65.3-11.6 13.5-36.6 47-47.5 63.5-31.4 47.7-52.3 95.4-62.1 142.2-3.5 16.9-4.5 43.1-2 57 5.4 30.9 19.5 48.1 49.5 60.1 12.7 5.1 24.2 7.2 40.6 7.2 28.5 0 44.8-3.2 154.5-30.5 72.7-18 92.6-21.3 134-22.2 21.6-.4 29-.2 40 1.2 14.5 1.8 35.2 6.7 46.5 11 25 9.5 54.8 28.8 84.5 54.9 7.1 6.3 21 21.3 21 22.8 0 .4-3.5-1.5-7.8-4.1-21-13.1-43.9-22-69.7-27.3-9.3-1.9-13.9-2.3-29.5-2.2-21.3.2-29 1.7-41.3 8.1-7 3.7-18.9 14.3-23.4 20.7l-2 2.9-3-4.9c-8.3-13.5-20.7-24.8-36.3-32.8-18.6-9.6-38.7-13.7-67.5-13.7-34.7 0-58.9 4-112.6 18.6-38.4 10.4-86 20.8-108.1 23.5-5.9.8-16.5 1-27 .8-14.3-.4-19-1-26.9-3.1-37.6-9.9-64.5-34.3-75.2-68.2-11.9-37.8-9.2-80.8 8.2-132.7 19.3-57.7 58.9-119.6 107.6-168.3 37.9-38 67.4-60 106-79.3 29.9-14.9 63.5-22.2 80.9-17.7zm704.4-.5c7.2 1 17 5.4 22.2 9.7l3.4 3 12.6-4.2c21.3-7.2 26-8 47.5-8 15.1 0 20.7.4 27 1.9 11.4 2.6 26.4 8 36.5 13.1 14.8 7.4 61.6 34.4 77.7 44.7l6.2 4-8.5 9.2c-4.7 5-12.7 13.7-17.7 19.3l-9.2 10.2-6.5-3.6c-3.6-2-19.8-12.2-36-22.8-45.6-29.6-54.9-34.7-77.6-42.4-17.4-5.9-27.9-7.3-38.5-5l-5.1 1.1.6 4.4c.7 5.3-.9 23.2-2.9 31.7-4.3 18.3-15.2 44.1-25.7 60.5-20.6 32.4-41.8 52.6-63.9 61.2-7.3 2.8-9.3 3.1-15.9 2.8-10.5-.4-15-3.4-19.3-12.6-2.9-6.1-3.1-7.6-3.1-16.2 0-11.4 2.9-20.6 12.2-40.2 16.4-34.2 47.3-68.5 83.3-92.3 4.5-3 8.7-5.6 9.3-5.8 2.6-1-.9-2-7.9-2.5-10.7-.7-19.6 1.7-33.5 9-47.8 24.9-90.3 65.2-147.2 139.8-24.6 32.2-54.6 82.6-69.3 116.5-18.9 43.3-28.5 91-23 114.3 3.1 13.1 10.7 23.4 21.8 29.3 8.3 4.4 19.1 5.2 29.4 2.1 20.2-6.2 45.4-27.2 66.8-55.7 27-35.8 41.7-70.5 41.9-98.5.1-17.4-3.1-22-14.5-20.7-10.1 1.2-20.5 10-31.1 26.1-9.8 14.8-14.1 24.6-18.3 41.1-2 7.9-2.6 9.2-5.1 10.4-14.7 6.9-33.3 20.2-48 34.3l-10.7 10.3.7-6c3.1-25.2 14.4-59.6 26.4-80.2 20.6-35.2 55.4-60.1 84.8-60.6 12.9-.3 22.3 6.6 27.5 20 1.7 4.5 2.3 8.5 2.7 18.4.7 20.3-3.4 37.9-14.5 62.5-24.6 54.8-68.1 103-113.8 126.3-16.7 8.4-42 11.9-57.4 7.7-24.8-6.7-43.1-27-50.7-56.2-3.2-12.2-4.3-34.1-2.5-49.1 4.2-34.6 23.5-85 50.6-131.8 13.1-22.7 43.3-66.5 59.4-86 18.5-22.6 49.8-54.7 71.1-73.1 13.6-11.8 34.4-27.4 47.3-35.4 27-16.9 61.6-31.9 80.7-35 4.1-.6 8.2-1.3 9-1.5 3.3-.6 12.9-.4 18.8.5zm456.7 6.7c-13.8 25.5-37.9 54-62.5 73.9-24.1 19.6-57.9 36-87.5 42.6-8.1 1.8-13.3 2.2-27.5 2.2-16.3.1-32-1.5-32-3.3 0-.7 16.3-21.1 26-32.4l6.5-7.6 13.5-.1c33.7-.2 59.5-7.5 95.5-26.9 20.6-11.1 43.4-28.1 61-45.3 5.5-5.3 10.2-9.8 10.3-9.8.2 0-1.3 3-3.3 6.7zm-107.9-.1c5.2 2.5 7.7 7.4 8.2 16.4.6 10.7-1.7 20.1-8.2 33.5l-5.3 11.1-7.7 1.8c-4.3 1-8 1.6-8.2 1.3-.3-.3 2.4-6.4 6.1-13.6 8.8-17.6 11.8-29.9 8.1-33-5.9-4.9-25.2 9.3-57.1 42-32.2 33-63.2 74.4-99.8 133-20.8 33.4-53.4 91.9-51.2 91.9 2.2 0 18.8-12.8 34-26.3 35.5-31.4 81.8-80.8 110.5-117.7l9.9-12.8 5.8-.7c3.2-.3 6.9-.9 8.1-1.2 2.4-.6 2.4-.6.7 2.7-2.3 4.4-21.7 30-33.3 44-45.1 54-86.1 93.7-134.2 129.9l-17.5 13.2-6.3 14.7c-7.8 18.2-17.3 46.3-20.2 60-5.8 27.1 2.6 38.2 19 25.2 8.2-6.5 24.1-27.2 38.5-50 38.8-61.8 68.9-98.5 99-120.9 17.5-13.1 25.8-17 37.5-17.8 13.6-1 20.1 2.2 28.6 14.1l2.1 2.9 3.5-5.9 3.4-5.9 23.8-.3 23.8-.2-3.5 6.2c-3 5.6-60.4 107-65.5 115.8-1.1 1.9-5.7 9.6-10.2 17-9.6 16-19.5 35.5-20.4 40.6-.8 4.2 1.3 7.4 4.9 7.4 2.8 0 14.6-8.3 23.1-16.2 11.4-10.7 27.3-30.6 42.4-53.1l4.5-6.7H1524.2l-2.3 3.7c-10.9 17.9-33.4 48.9-47.6 65.4-13 15.1-30.6 31.6-40.3 38-19.2 12.5-29.7 16.8-38.2 15.4-13.5-2.3-19.7-12.2-18.5-29.6l.5-7.9-8.3 7.9c-11.8 11.1-23.5 19.7-33.9 24.7-8.3 4.1-9.5 4.4-17.1 4.4-13.1 0-19.9-4.4-25.2-16.5-1.4-3.1-1.7-6.8-1.8-17.2v-13.1l-2.9 3.6c-5.7 7.3-27.2 27.9-33.4 32.1-10.8 7.3-18.7 10.5-27 10.9-10 .6-14.6-1.3-21.6-8.8-7.4-8.1-9.7-15.1-9.7-29.3 0-16.6 4.3-35.4 16.5-71.6 3.1-9.1 5.5-16.6 5.3-16.7-.1-.1-3.3.4-7.2 1.2-3.8.7-9.5 1.3-12.6 1.4-5.5 0-5.6.1-7.9 4.2-11.3 20.3-30.9 49-44.8 65.6-21.2 25.4-49.7 47.3-68.7 52.8-7.5 2.2-18.8 2.3-23.6.2-5.3-2.3-11.7-8.4-14.4-13.8-17.9-35.3 19.4-121.8 78-180.5 17.1-17.2 28.1-25.5 44.7-33.9 13.8-6.9 19.4-8.6 29.2-8.6 12.6 0 20.9 4.7 25.6 14.5 7.9 16.3 2.9 46.6-12.6 77.7l-3.4 6.8h4.2c4.6 0 9.7-1.1 16.6-3.6 4.2-1.6 4.3-1.7 14.2-21.7 36.2-73.4 79.9-140.8 124.9-193.2 38.2-44.3 86.4-87.4 113.6-101.3 13.1-6.7 28.7-9.1 36.1-5.6zm-739 108.9c5.4 1.6 11.7 6.3 14.4 10.8l1.8 2.9 2.6-4.1 2.6-4.1h47.2l-1.4 2.2c-4.3 6.7-97.2 167.5-98.4 170.3-3 7.2-.8 13.3 4.4 12 10.8-2.7 37.9-29.8 60.2-60.2l7.5-10.2 7.8-.1c4.2 0 7.7.3 7.7.6 0 .9-12.7 18.7-24.6 34.4-34.9 46.2-71 78.3-93.1 83-10.8 2.3-20.8-2.2-25.2-11.3-1.7-3.5-2.1-6.2-2.1-13.7v-9.4l-7.2 7.1c-24.5 24-46.6 32.8-63.5 25.3-10.5-4.6-14.6-12.2-14.6-27 0-8.1 2.3-21.8 4.9-29.9.6-2-.8-.7-16.6 14.3-16.7 15.9-35.5 30.2-47.8 36.2-12.6 6.1-22.1 8.4-35.3 8.4-9.8 0-11-.2-16.6-3-11.8-5.9-19.9-17-23-31.4-2.4-11.4-2.2-28.5.4-38.1 3.3-12 10.4-29 19.8-47.3 6-11.7 7.9-16.1 6.6-15.7-1 .3-6.2 1.7-11.6 3-5.5 1.4-10.3 3.1-10.7 3.8-.9 1.3-6.6 10.8-18.2 30.2-13.7 23-26.8 39.8-46 59-39 38.8-71.6 50-89.7 30.8-7.6-7.9-10.4-17.4-10.3-34.8 0-14 1.8-23.6 7.6-41 11.7-35.3 36.4-73.1 68.8-105.6 19.1-19.2 33.3-30.2 50-38.7 13.9-7.2 23.6-9.7 34.9-9 9.2.6 14.3 2.9 19.9 9.3 5.3 6 7.3 11.9 7.9 23.5.6 11.7-1.7 23.9-8.2 43.1-2.4 7.3-4.2 13.6-3.9 14 .2.4 2.1.3 4.2-.3 13.4-3.7 36.6-20.7 56.7-41.6 19.5-20.3 37.6-34.6 52.7-41.6 11.8-5.5 18.4-7 28.9-6.4 10.1.5 16 2.9 21.8 8.7 6.2 6.2 8.4 11.3 8.9 20.6.7 13.8-4.4 28.3-15 42.7-11.2 15.1-24.6 19.9-31.8 11.4-4.1-5-2.6-17.9 3.2-26.8 6.3-9.9 15.1-15.8 23.6-15.8 2.6 0 3.5-.5 4.3-2.8.6-1.5.8-4.2.5-6.1-1.6-10.4-14-11.2-28.6-1.8-9.2 5.9-32 29-42.4 42.9-12.6 17-20.5 29.9-30.6 50.3-10.1 20.5-15.5 34.5-17.8 45.9-1.9 9.6-.6 19.9 3.3 25.8 7.3 11 22.9 10.3 41.2-1.9 16.9-11.1 48.2-45.5 72.2-79.3 28.6-40.2 39.3-53.4 60-74 32.2-32.1 57.1-45.1 75.7-39.5zm132 26.5-12.1 20H847l9.7-15.8c5.3-8.6 10.8-17.6 12.2-20l2.6-4.2h44.3l-12.2 20zm600 296.8c5.8 3 11 9.2 12.8 15.3 1.9 6.3 2 8.6.4 14.7-1.5 6-9.6 14.5-15.3 16.1-5.7 1.6-14 1.4-18.3-.4-4.9-2.1-11-8-13.3-13-2.2-4.8-2.5-15.1-.5-19.9 2.7-6.5 9.2-12.3 16.6-14.7 4-1.3 13.3-.3 17.6 1.9z"/><path d="M1172.6 667.5c-24.7 14.1-51.9 40.6-70.2 68.5-12.6 19.3-21.9 39.7-22.5 49.5-.4 8.8 0 10.6 3.5 14.1 2.9 2.9 4.1 3.4 8.3 3.4 6 0 10.6-2.1 20.8-9.5 36.8-26.2 65.3-76.9 68.2-120.8.3-5.3.4-9.7.2-9.7-.3 0-4 2-8.3 4.5zM1181 883.2c-8.3 4.3-17.8 13.7-21.6 21.4-2.6 5.2-2.9 7-2.9 14.9 0 7.8.4 9.8 2.8 14.6 1.5 3.2 5.1 7.9 8.2 10.8 5.3 5 17 11.6 18.7 10.5 1.9-1.2 10.2-19.4 14-30.8 3.3-9.8 4.1-13.9 4.6-22.1.5-11.4-.5-15.9-4.5-19.9-3.9-3.9-11-3.6-19.3.6zM1452.4 886.5c-2.7 1.3-9.3 6.3-14.7 11.1-15.8 14.1-32 33.9-49 60-25.9 39.8-37 63.3-38.4 81.3-.5 7.1-.4 8 1.6 10 2.6 2.6 8.2 2.7 12.8.3 15.9-8.5 35.4-36.7 83.5-120.7 6.3-11 13.6-23.4 16.1-27.5 5.1-8.1 5.9-12.6 2.9-15.3-2.7-2.4-9-2.1-14.8.8zM1134 942.1c-16.7 23.9-31.9 51.6-38 69.4-3 8.8-3.4 11.3-3.4 20.5-.1 9.4.1 10.8 2.2 13.7 3.2 4.5 8.8 6.1 15 4.4 16.7-4.4 45.1-36 63.2-70.3l4.8-9.2-6.6-3.8c-13.2-7.8-23.9-17.8-29.5-27.7l-2.5-4.3-5.2 7.3zM453.9 766.4c-9.3 3.3-19.3 13-24.2 23.5-3.7 7.9-4.2 17.3-1.2 23.6 4.4 9.1 18 18.2 28.1 18.7l4.7.3 4.8-11c11.2-25.7 12.4-50.1 2.9-55-3.5-1.8-10.2-1.9-15.1-.1zM765.5 766c-7.7 1.7-17.7 9.1-26.8 19.8-18.8 22-41.7 52.7-54.3 72.7-15.6 24.9-28.4 55-28.4 66.8 0 4.8.4 5.8 2.6 7.6 4 3.2 8.1 2.7 15.1-1.9 13.4-8.8 27.3-26.9 48.9-63.7 22.3-37.9 54.4-94.4 54.4-95.6 0-3.9-6-6.9-11.5-5.7zM400.8 827.5c-20.1 29.2-32.7 54.4-37.9 76-3.1 13.2-2.1 20.5 3.7 26.3 3.4 3.4 3.7 3.5 9.5 2.9 4.4-.4 7.5-1.4 11.6-3.9 7.7-4.6 21.9-18.2 32-30.8 8.2-10.2 31.3-45.9 31.3-48.4 0-.7-1.9-1.8-4.2-2.5-12.7-3.8-28.3-15-34.8-25.1-1.8-2.7-3.4-5-3.6-5-.2 0-3.6 4.7-7.6 10.5zM1483.9 1071c-9.6 5.1-13.3 16.5-8.4 26.1 2.1 4 8 8.7 12.5 9.9 14.4 3.9 28.2-11.6 22.9-25.7-1.4-3.8-6.7-9.2-10.6-10.9-4.5-2-12.1-1.7-16.4.6zm14 4.1c5.2 1.8 6.9 8.1 3.1 11.9-1.1 1.1-1.5 2.2-.9 2.5.9.6 5.9 9.8 5.9 11 0 .3-1.6.5-3.5.5-3.2 0-3.7-.4-6-5-2-4-3-5-5-5-2.3 0-2.5.3-2.5 5v5h-7v-27h6.4c3.4 0 7.7.5 9.5 1.1z"/><path d="M1489 1083c0 2.8.3 3.1 2.8 2.8 2.1-.2 2.7-.8 2.7-2.8 0-2-.6-2.6-2.7-2.8-2.5-.3-2.8 0-2.8 2.8z"/></svg>