<svg version="1.1" id="macysinc_logo" xmlns:x="ns_extend;" xmlns:i="ns_ai;" xmlns:graph="ns_graphs;" xmlns="http://www.w3.org/2000/svg" xmlns:xlink="http://www.w3.org/1999/xlink" x="0px" y="0px" viewBox="0 0 220 47.8" style="enable-background:new 0 0 220 47.8;" xml:space="preserve">
 <style type="text/css">
  .st0{fill:#1A1818;}
 </style>
 <metadata>
  <sfw xmlns="ns_sfw;">
   <slices>
   </slices>
   <sliceSourceBounds bottomLeftOrigin="true" height="47.8" width="220" x="0" y="0">
   </sliceSourceBounds>
  </sfw>
 </metadata>
 <g>
  <path id="Path_39476" class="st0" d="M7.2,38.3V23.2c0-3,1.9-5,4.8-5c3.1,0,4.5,1.8,4.5,4.7v15.4h7.2V23.2c-0.2-2.5,1.7-4.8,4.2-5
		c0.2,0,0.4,0,0.6,0c3.1,0,4.5,1.8,4.5,4.7v15.4h7.2V21.5c0-6.6-3.9-9.2-9.4-9.2c-3.4,0-6.4,1-8.1,3.1h-0.1c-1.5-2-4.2-3.1-7.9-3.1
		c-3.3,0-6,1-7.4,2.9H7.2v-2.3H0v25.4L7.2,38.3z">
  </path>
  <path id="Path_39477" class="st0" d="M53.4,33.8c-2.4,0-3.9-1-3.9-2.9c0-2.1,1.7-3.2,5.1-3.8l4.8-0.9v2.4
		C59.4,32.2,56.6,33.8,53.4,33.8 M51.3,38.6c3.4,0,6.7-0.9,8.4-3.6h0.1v3h6.7v-18c0-4.9-3-8-10.7-8c-7.3,0-11.6,2.3-12,8.1l6.8,0.4
		c0.2-2.6,1.8-3.7,4.7-3.7c3.3,0,4.2,1.3,4.2,3.8v1.1l-5.6,0.9c-7.7,1.3-11.3,3.6-11.3,8.8C42.5,35.9,45.9,38.6,51.3,38.6">
  </path>
  <path id="Path_39478" class="st0" d="M81.9,39c6.8,0,10.9-3.6,12.2-8.6l-6.3-1.5c-0.6,2.7-2.9,4.6-5.7,4.5c-4,0-6.1-2.9-6.1-7.7
		c0-4.7,2.1-7.7,6.1-7.7c2.6-0.1,4.9,1.6,5.5,4.1l6.3-1.6c-1.4-4.6-5.4-8-12.2-8c-8.1,0-12.9,5.3-12.9,13.3
		C68.9,34.1,73.8,39,81.9,39">
  </path>
  <path id="Path_39479" class="st0" d="M99.6,47.8c4.7,0,6.6-1.5,8.3-5.9l11.8-29.3h-7.4l-5.9,16.9h-0.1l-5.7-16.9h-7.4l9.6,25.3
		l-0.8,2.2c-0.7,2-1.7,2.6-3.9,2.6h-2v5.2L99.6,47.8z">
  </path>
  <path id="Path_39480" class="st0" d="M130.8,38.9c6.6,0,11.5-3,11.5-8.3c0-4.9-3.7-7-9.5-7.9c-4.7-0.6-6.5-1.3-6.5-3.1
		c0-1.4,1.6-2.3,3.9-2.3c2.8-0.1,5.4,1.1,7.1,3.3l4.2-3.5c-2.1-3.2-6.3-4.7-11.3-4.7c-6.2,0-10.6,2.9-10.6,7.8c0,4.9,4,7.1,10.1,7.9
		c4.4,0.6,5.9,1.3,5.9,3.1c0,1.5-1.6,2.7-4.5,2.7c-3.7,0-6.7-1.3-8.6-4.5l-4.7,3.5C119.7,37,124.9,38.9,130.8,38.9">
  </path>
  <path id="Path_39481" class="st0" d="M175.6,38.2v-15c0-3,2.2-5,5.3-5s4.8,1.4,4.8,4.8v15.2h7.1V21.2c0-6.3-3.8-8.8-9.6-8.8
		c-3.3,0-6,1-7.5,2.6h-0.1v-2h-7.1v25.2L175.6,38.2z">
  </path>
  <path id="Path_39482" class="st0" d="M207.7,39c6.8,0,11-3.6,12.3-8.7l-6.3-1.5c-0.6,2.7-3,4.6-5.7,4.5c-4,0-6.1-2.9-6.1-7.7
		c0-4.7,2.1-7.7,6.1-7.7c2.6-0.1,4.9,1.6,5.5,4.1l6.3-1.6c-1.4-4.6-5.4-8.1-12.2-8.1c-8.2,0-12.9,5.3-12.9,13.3
		C194.6,34.1,199.6,39,207.7,39">
  </path>
  <rect id="Rectangle_14988" x="157.8" y="12.7" class="st0" width="7.2" height="25.5">
  </rect>
  <path id="Path_39483" d="M161.4,0l1.2,3.7h3.9L163.4,6l1.2,3.6l-3.1-2.3l-3.2,2.3l1.2-3.6l-3.2-2.3h3.9L161.4,0z">
  </path>
 </g>
</svg>