<svg version="1.0" xmlns="http://www.w3.org/2000/svg" width="341.333" height="341.333" viewBox="0 0 256 256"><path d="M93.3 3.6c-25.4 2.7-52.4 8.7-76.8 17.1C9.4 23.1 3 25.5 2.3 25.9c-1 .5-.5 2.4 2.2 7.9L7.9 41l5.3-2.1C51.2 23.8 86.5 17 128 17c41.4 0 76.8 6.8 114.7 21.9L248 41l3.6-7.2c2.8-5.6 3.3-7.3 2.2-7.9-2.6-1.6-31.5-10.9-43.3-13.8-28.2-7.1-53.8-10.1-84-10-11.5.1-26.5.7-33.2 1.5z"/><path d="M85.7 27.5C65.2 30 42 35.8 23.3 43.1 17.6 45.3 13 47.6 13 48.2c0 1.6 5.8 7.9 11.9 12.8 6.2 5 19.6 12.4 21 11.6.5-.3 1.1-2 1.5-3.7.9-4.5 6.3-9.4 12.7-11.4 7.5-2.3 31.4-3.3 32.1-1.4.3.8 8.3 45.2 17.9 98.6 9.6 53.5 17.6 97.3 17.9 97.3.3 0 8.4-44.3 18-98.5L163.4 55h9.6c12.1 0 21.3 1.5 27 4.3 4.9 2.4 9 7.6 9 11.3 0 1.3.5 2.4 1 2.4 1.5 0 10.8-4.8 16-8.3 5.5-3.7 17-14.7 17-16.3 0-2.7-28.4-12.3-49.8-17-9.2-2-33.1-5.4-37.8-5.4-.7 0-6.9 7-13.9 15.5C134.6 50 128.5 57 128 57s-6.6-7-13.6-15.5C103.7 28.4 101.3 26 99.1 26.1c-1.4.1-7.5.7-13.4 1.4z"/></svg>