<svg version="1.0" xmlns="http://www.w3.org/2000/svg" width="32" height="32" viewBox="0 0 24 24"><path d="M4 4.5C2.5 6.3 3 9 5.3 10.4c3.4 2.2 7.3-2.7 4.7-5.9-1.6-1.9-4.4-1.9-6 0zm4.6 1.6c1 1.7-1.3 3.6-2.7 2.2C4.7 7.1 5.5 5 7 5c.5 0 1.2.5 1.6 1.1zM13.4 4.4c-.3.8-.4 2.5-.2 3.8.2 1.9.9 2.3 3.8 2.3 3.3 0 3.5-.2 3.5-3.5 0-3.2-.3-3.5-3.3-3.8-2.1-.2-3.4.2-3.8 1.2zM19 7c0 1.3-.7 2-2 2s-2-.7-2-2 .7-2 2-2 2 .7 2 2zM4 14.5c-2.6 3.2 1.3 8.1 4.8 5.9.9-.6 1.8-1.9 2-2.8.8-3.8-4.3-6.1-6.8-3.1zm4.6 1.6c1 1.7-1.3 3.6-2.7 2.2C4.7 17.1 5.5 15 7 15c.5 0 1.2.5 1.6 1.1zM14 14.5c-2.6 3.2 1.3 8.1 4.8 5.9.9-.6 1.8-1.9 2-2.8.8-3.8-4.3-6.1-6.8-3.1zm4.6 1.6c1 1.7-1.3 3.6-2.7 2.2-1.2-1.2-.4-3.3 1.1-3.3.5 0 1.2.5 1.6 1.1z"/></svg>