<svg version="1.0" xmlns="http://www.w3.org/2000/svg" width="66.6667" height="66.6667" viewBox="0 0 50 50"><path d="M21 3.4c0 .8.6 1.6 1.3 1.9.6.2-.7 1-3.1 1.6-2.3.7-5.9 2.6-7.9 4.4-11.7 10.3-8.6 29.1 5.9 35.1C30.4 52 46 41.4 46 27c0-8.7-6.8-17.8-15-20-2.5-.7-3.9-1.5-3.2-1.7.6-.3 1.2-1.1 1.2-1.9 0-1-1.2-1.4-4-1.4s-4 .4-4 1.4zm10.8 6.1c16 6.7 16 28.3 0 35-9.2 3.8-19.5-.5-23.9-10-4.4-9.4-.2-20.1 9.6-24.6 4.9-2.3 9.4-2.4 14.3-.4z"/><path d="M14.1 16.8C14.7 18.5 27 31 28 31c2.2 0 .7-2.3-5.6-8.2-6.4-6.2-9-8.1-8.3-6zM39.5 6c-1 1.7 3.2 5.7 4.5 4.4.7-.7.3-1.7-1.4-3.3C40.9 5.5 40 5.2 39.5 6z"/></svg>