<svg version="1.0" xmlns="http://www.w3.org/2000/svg" width="341.333" height="341.333" viewBox="0 0 256 256"><path fill="#fff" d="M169.3 3.5c-15.5 4.2-29.4 15.9-36.7 30.8-2.8 5.7-5.9 18.5-5.4 22.6.3 2.3.8 2.6 4.4 2.9 5.4.4 15.3-3 22.1-7.5C168 42.8 178 24.7 178 8.2c0-7.1.1-7-8.7-4.7zM161.5 64.4c-2.7.7-10.2 3.2-16.5 5.5-6.5 2.4-13.2 4.3-15.5 4.3-2.2 0-8.5-1.7-14-3.7C100.9 65.1 96.3 64 88 64c-17.6 0-34 8.1-46.1 22.7-21.2 25.7-21.7 71.5-1.3 115.3 9.7 20.7 27.9 43.6 38.9 49 4 2 6.4 2.5 12.5 2.4 6.4-.1 9-.7 18-4.4 9.4-3.8 11.6-4.3 20.5-4.7 10.6-.5 12.6-.1 29 6.2 14.5 5.7 26.9 3 37.9-8 6-5.9 15.4-18.8 21.4-29 4.2-7.4 11.2-23.4 11.2-25.8 0-.8-1.9-2.2-4.2-3.3-6.1-2.7-19.9-16.7-23.1-23.4-4.4-9.2-6-17.2-5.5-27.9.6-11.7 3-18.9 9.5-28.4 4.1-6.2 6.9-8.9 15.2-15.5l2.5-1.9-7-6.9c-8-8-16.1-12.6-27-15.4-8.8-2.3-21.2-2.5-28.9-.6z"/></svg>