<svg version="1.0" xmlns="http://www.w3.org/2000/svg" width="341.333" height="341.333" viewBox="0 0 256 256"><path fill="#fff" d="M113.5.6C79.5 5.8 52.8 19.9 31.7 44 17.2 60.5 7.3 80.6 2.4 103c-2.6 11.9-2.6 38.1 0 50 5.6 26 16.7 46.3 35.5 65.1C56.7 236.9 77 248 103 253.6c11.9 2.6 38.1 2.6 50 0 51.3-11.1 89.5-49.3 100.6-100.6 2.6-11.9 2.6-38.1 0-50-3.5-16.2-10.4-32.9-18.9-45.5-5.6-8.3-7.7-10.8-17-20.3C201.1 20.4 179.5 8.5 155 2.9 146.7 1 120.6-.5 113.5.6zm29 73.9c6.6 1.8 13.8 5.4 18.7 9.6l3.3 2.8-7.6 7.7-7.7 7.7-3.3-2.6c-18.4-13.9-47-1.1-50.7 22.7-2.4 15.2 5.8 30.5 19.6 36.9 6.8 3.2 20.7 3 27.4-.2 5.9-2.9 11.5-8.3 13.9-13.5 3.5-7.8 3.8-7.6-13.1-7.6h-15v-20h51.8l.6 3.1c1 5.2.7 14-.9 21.4-4.1 19.5-17.8 34-36.6 39-7.1 1.9-22 1.9-29.4 0-18.1-4.8-33.6-20.2-39-38.9-2.4-8.4-2.2-22.2.4-30.6 5.6-17.9 20.7-32.7 38.2-37.4 7.2-2 22-2 29.4-.1z"/></svg>