<svg version="1.0" xmlns="http://www.w3.org/2000/svg" width="341.333" height="341.333" viewBox="0 0 256 256"><path fill="#fff" d="M0 128v128h256V0H0v128zm116.8-54.8.3 6.7-14.1.3-14 .3 10.8 14c5.9 7.7 14.4 18.6 18.9 24.2l8.1 10.1 18-15.6c9.9-8.7 18.1-16 18.1-16.4.1-.4-4.7-.9-10.5-1l-10.7-.3-1.3-4.5c-2.7-8.8-6.6-8 39.6-8 30.4 0 41 .3 41 1.2 0 .6-1.8 3.5-3.9 6.3l-4 5.2-10 .5-10.1.5-8.2 5.5c-12.8 8.5-30.3 22.5-39.5 31.4l-8.3 8.1v14c0 7.7.3 16.1.6 18.6l.7 4.6 14.6.3 14.6.3-.3 4.5c-.2 2.4-.4 4.5-.5 4.6-.1.1-20.8.4-45.9.6l-45.8.5v-2.3c0-1.2.4-3.4 1-4.8.9-2.5 1.2-2.6 10.7-2.7 5.4 0 11.4-.5 13.3-1.2 3.4-1.2 3.5-1.3 4.3-8.2.4-3.9.5-11.8.1-17.7l-.6-10.8-5.1-6.7c-8.8-11.7-28.8-35.4-38.6-45.5L50.8 80H22v-6.3c0-3.5.3-6.7.7-7 .3-.4 21.6-.6 47.2-.5l46.6.3.3 6.7zm107 37.4c5.1.4 9.4 1 9.6 1.3.2.3-2.9 12.7-6.9 27.6l-7.2 27-3.3.3c-1.9.2-4.9.1-6.7-.3l-3.3-.6v-57.2l4.3.6c2.3.3 8.4.9 13.5 1.3zm-4.2 65.7c.1.1-.3 3.1-.9 6.7-.8 4-1.7 6.5-2.5 6.4-.6-.1-3.7-.2-6.7-.3l-5.5-.1v-14.3l7.7.7c4.3.4 7.8.8 7.9.9z"/></svg>